<?xml version="1.0" encoding="UTF-8"?>
<svg width="465px" height="465px" viewBox="0 0 465 465" version="1.1" xmlns="http://www.w3.org/2000/svg" xmlns:xlink="http://www.w3.org/1999/xlink">
    <title>菊花</title>
    <g id="菊花" stroke="none" stroke-width="1" fill="none" fill-rule="evenodd">
        <g id=")*(" transform="translate(77.000000, 138.000000)" fill="#000000" fill-rule="nonzero">
            <path d="M37.4571429,100 C37.4571429,89.1625616 36.1757143,79.228243 33.6128571,70.1970443 C31.05,61.1658456 27.025,52.3316913 21.5378571,43.6945813 C16.0507143,35.0574713 8.87142857,25.9441708 0,16.3546798 L18.1371429,0 C28.52,8.93267652 37.5228571,18.3579639 45.1457143,28.2758621 C52.7685714,38.1937603 58.65,49.0311987 62.79,60.7881773 C66.93,72.545156 69,85.6157635 69,100 C69,114.384236 66.93,127.454844 62.79,139.211823 C58.65,150.968801 52.7685714,161.80624 45.1457143,171.724138 C37.5228571,181.642036 28.52,191.067323 18.1371429,200 L0,183.64532 C7.09714286,175.960591 13.0442857,168.784893 17.8414286,162.118227 C22.6385714,155.45156 26.4828571,148.899836 29.3742857,142.463054 C32.2657143,136.026273 34.3357143,129.376026 35.5842857,122.512315 C36.8328571,115.648604 37.4571429,108.144499 37.4571429,100 Z" id="路径"></path>
            <polygon id="路径" points="138.775229 52 168.224771 52 164.00367 89.1895551 197.870642 73.6034816 207 101.717602 170.384404 109.116054 195.514679 136.83559 171.856881 154 153.5 121.644101 135.143119 154 111.485321 136.83559 136.615596 109.116054 100 101.717602 109.129358 73.6034816 142.99633 89.1895551"></polygon>
            <path d="M269.542857,100 C269.542857,108.144499 270.167143,115.648604 271.415714,122.512315 C272.664286,129.376026 274.734286,136.026273 277.625714,142.463054 C280.517143,148.899836 284.361429,155.45156 289.158571,162.118227 C293.955714,168.784893 299.902857,175.960591 307,183.64532 L288.862857,200 C278.48,191.067323 269.477143,181.642036 261.854286,171.724138 C254.231429,161.80624 248.35,150.968801 244.21,139.211823 C240.07,127.454844 238,114.384236 238,100 C238,85.6157635 240.07,72.545156 244.21,60.7881773 C248.35,49.0311987 254.231429,38.1937603 261.854286,28.2758621 C269.477143,18.3579639 278.48,8.93267652 288.862857,0 L307,16.3546798 C298.194286,25.9441708 291.031429,35.0574713 285.511429,43.6945813 C279.991429,52.3316913 275.95,61.1658456 273.387143,70.1970443 C270.824286,79.228243 269.542857,89.1625616 269.542857,100 Z" id="路径"></path>
        </g>
    </g>
</svg>
